<svg xmlns="http://www.w3.org/2000/svg" xmlns:xlink="http://www.w3.org/1999/xlink" viewBox="0 0 180.06 22.05"><defs><style>.\32 f447c36-b645-4d23-9306-03953053c353{fill:none;stroke-width:3.5px;}.\32 f447c36-b645-4d23-9306-03953053c353,.\36 f1a262c-76f8-4b01-9fe4-175249b1461d{stroke:#1d1d1b;stroke-miterlimit:10;}.\36 f1a262c-76f8-4b01-9fe4-175249b1461d{stroke-width:1.25px;}.\36 31d5c37-6522-4757-8cce-d0a9c9354657{font-size:37.49px;font-family:Calibri, Calibri;}</style><symbol id="e664804d-b82f-45fc-92f1-c70256cfb233" data-name="Nuovo simbolo 1" viewBox="0 0 353.75 43.32"><polygon id="9a448dca-fc10-4c7a-a733-36741b777464" data-name="svg 8" class="2f447c36-b645-4d23-9306-03953053c353" points="197.72 7.47 205.13 24.47 212.43 41.57 197.72 41.57 183.13 41.57 190.53 24.47 197.72 7.47"/><path id="9420b9cc-f72e-4b6f-8bc4-8e858e4814da" data-name="svg 9" class="6f1a262c-76f8-4b01-9fe4-175249b1461d" d="M8,23.87l16.8,18.7h-3.6l-15-16.8-2.9,3.3v13.4H.63V4.67H3.32v20.4l17.9-20.3h3.5Z"/><path id="1b1b1ac1-d17f-4ee2-ac54-e26997dbaf52" data-name="svg 10" class="6f1a262c-76f8-4b01-9fe4-175249b1461d" d="M55.73,23.77a18.9,18.9,0,1,1,18.9,18.9,18.95,18.95,0,0,1-18.9-18.9Zm2.59,0a16.3,16.3,0,1,0,16.3-16.3,16.31,16.31,0,0,0-16.3,16.3Z"/><path id="5ba15b6d-a31a-4ed7-bdea-2cbca16426ea" data-name="svg 11" class="6f1a262c-76f8-4b01-9fe4-175249b1461d" d="M132,4.87a18.9,18.9,0,0,1,0,37.8h-7.6V4.87Zm16.31,18.9A16.3,16.3,0,0,0,132,7.47h-4.9V40H132a16.23,16.23,0,0,0,16.31-16.2Z"/><path id="7a828c84-7c17-4111-8001-e85f4fe40e9b" data-name="svg 12" class="6f1a262c-76f8-4b01-9fe4-175249b1461d" d="M263.83,42.67h-20.1V4.87h2.7v35.2h17.5v2.6Z"/><path id="0f335cbc-b78b-4888-9742-cd568710686e" data-name="svg 13" class="6f1a262c-76f8-4b01-9fe4-175249b1461d" d="M323.52,4.87l-13.1,23.6v14.1h-2.7V28.87l-13-24.1h3L309,25.67l11.5-20.9,3,.1Z"/><text class="631d5c37-6522-4757-8cce-d0a9c9354657" transform="translate(333.48 30.59) scale(1.07 1)">®</text></symbol></defs><title>Risorsa 2</title><g id="ed538058-e51b-4af0-91ce-19333d64dd5c" data-name="Livello 2"><g id="300661f6-2a48-4782-83b7-e82adf177506" data-name="Livello 1"><use width="353.75" height="43.32" transform="scale(0.51)" xlink:href="#e664804d-b82f-45fc-92f1-c70256cfb233"/></g></g></svg>