<svg xmlns="http://www.w3.org/2000/svg" viewBox="0 0 5672.97 2553.46"><defs><style>.\36 9c36e89-1e0c-466e-a599-8f76b3c2d20e{isolation:isolate;}.c816e030-f4d5-4fb1-b11d-09ad6ec796f5{mix-blend-mode:multiply;}.\32 04bf191-274b-473e-95d6-52d3cb24d5ca,.\32 54a191a-a237-424a-93cc-9befa7e37181{stroke:#000;stroke-linecap:round;stroke-linejoin:round;stroke-width:6px;}.\32 04bf191-274b-473e-95d6-52d3cb24d5ca{fill:#fff;}</style></defs><title>Risorsa 2</title><g class="69c36e89-1e0c-466e-a599-8f76b3c2d20e"><g id="39a1273e-fe29-455f-9e35-8a5e89eafef6" data-name="Livello 2"><g id="3ccb5a38-f3c6-4a55-ad8d-dea54d19ce8f" data-name="Livello 1"><g class="c816e030-f4d5-4fb1-b11d-09ad6ec796f5"><path class="254a191a-a237-424a-93cc-9befa7e37181" d="M3201.49,2161c-68.1,84.13-68.1,204.31,0,289.24,79.32,100.15,225.15,116.18,325.3,36.06,48.08-38.46,116.18-38.46,165.05,0,84.13,68.1,204.32,68.1,289.25,0,100.15-79.33,116.18-225.15,36-325.3-38.46-48.08-38.46-116.18,0-165.06h-.8c68.11-84.13,68.11-204.31,0-289.24C3937,1606.5,3791.2,1590.47,3691,1670.59c-48.07,38.46-116.17,38.46-165.05,0-84.13-68.1-204.31-68.1-289.24,0-100.16,79.33-116.18,225.15-36.06,325.3,38.46,48.08,38.46,116.18,0,165.06" transform="translate(0 0)"/></g><g id="a69f796e-cfa6-4138-983b-d982082262e0" data-name="ARC"><path class="204bf191-274b-473e-95d6-52d3cb24d5ca" d="M3201.49,2126.93c-68.1,84.13-68.1,204.31,0,289.24,79.32,100.16,225.15,116.18,325.3,36.06,48.08-38.46,116.18-38.46,165.05,0,84.13,68.1,204.32,68.1,289.25,0,100.15-79.32,116.18-225.15,36-325.3-38.46-48.07-38.46-116.18,0-165h-.8c68.11-84.13,68.11-204.32,0-289.25-79.32-100.15-225.14-116.17-325.3-36.05-48.07,38.46-116.17,38.46-165.05,0-84.13-68.11-204.31-68.11-289.24,0-100.16,79.32-116.18,225.14-36.06,325.3,38.46,48.07,38.46,116.18,0,165" transform="translate(0 0)"/></g><g class="c816e030-f4d5-4fb1-b11d-09ad6ec796f5"><path class="254a191a-a237-424a-93cc-9befa7e37181" d="M3190.28,121.75,3236,76.08C3288,24,3373,24,3425,76.08l96.14,96.14h.8c48.08,48.88,127.4,48.88,176.27,0l96.15-96.14c52.08-52.08,137-52.08,189.09,0l45.67,45.67c52.08,52.08,52.08,137,0,189.09v.8L3933,407.78c-48.87,48.08-48.87,127.4,0,176.27l96.15,96.15c52.08,52.08,52.08,137,0,189.09l-45.67,46.47c-52.08,52.08-137,52.08-189.09,0l-96.15-96.14h-.8c-48.07-48.88-127.39-48.88-176.27,0L3425,915.76c-52.08,52.08-137,52.08-189.09,0l-45.67-46.47c-52.08-52.08-52.08-137,0-189.09l96.14-96.15c48.88-48.07,48.88-127.39,0-176.27l-96.14-96.14c-52.08-52.08-52.08-137,0-189.09" transform="translate(0 0)"/></g><g id="d6d19f9b-60fe-4eb8-a0c8-0bab1cbbb715" data-name="ARC"><path class="204bf191-274b-473e-95d6-52d3cb24d5ca" d="M3190.28,87.73,3236,42.06C3288-10,3373-10,3425,42.06l96.14,96.15h.8c48.08,48.87,127.4,48.87,176.27,0l96.15-96.15c52.08-52.08,137-52.08,189.09,0l45.67,45.67c52.08,52.08,52.08,137,0,189.09v.8L3933,373.77c-48.87,48.07-48.87,127.39,0,176.27l96.15,96.15c52.08,52.08,52.08,137,0,189.09l-45.67,46.47c-52.08,52.08-137,52.08-189.09,0l-96.15-96.15h-.8c-48.07-48.87-127.39-48.87-176.27,0L3425,881.75c-52.08,52.08-137,52.08-189.09,0l-45.67-46.47c-52.08-52.08-52.08-137,0-189.09L3286.42,550c48.88-48.07,48.88-127.4,0-176.27l-96.14-96.15c-52.08-52.08-52.08-137,0-189.09" transform="translate(0 0)"/></g><g class="c816e030-f4d5-4fb1-b11d-09ad6ec796f5"><path class="254a191a-a237-424a-93cc-9befa7e37181" d="M4773.3,295.61,5085.78,68.86a162.4,162.4,0,0,1,189.89,0l312.48,226.75c56.88,40.87,80.12,113.78,58.49,180.28v.8l-119.39,367A161.15,161.15,0,0,1,5373.42,955v.8h-386.2c-69.7,0-132.2-44.86-153.83-111.37v-.8L4714,476.69a161.65,161.65,0,0,1,58.49-180.28" transform="translate(0 0)"/></g><g id="d1fa12b3-6c6f-4d29-a809-de506ba148ad" data-name="LINE"><path class="204bf191-274b-473e-95d6-52d3cb24d5ca" d="M4773.3,261.6,5085.78,34.85a162.4,162.4,0,0,1,189.89,0L5588.15,261.6c56.88,40.86,80.12,113.77,58.49,180.27v.8l-119.39,367A161.15,161.15,0,0,1,5373.42,921v.8h-386.2c-69.7,0-132.2-44.87-153.83-111.37v-.8L4714,442.67A161.63,161.63,0,0,1,4772.5,262.4" transform="translate(0 0)"/></g><g id="0e083db1-d313-4c34-97ae-440bd923e8d6" data-name="ARC"><g class="c816e030-f4d5-4fb1-b11d-09ad6ec796f5"><path class="254a191a-a237-424a-93cc-9befa7e37181" d="M5341.37,2540.73,5230,2499.87h.8a141.53,141.53,0,0,0-96.15,0l-111.37,40.86c-76.92,28-161.85-11.22-189.89-88.14a153.49,153.49,0,0,1-8.81-56.88v.8l4.8-118.58v.8c1.61-32.85-9.61-65.7-29.64-91.34l-72.91-92.95c-50.48-64.09-39.26-157,24.83-208.32a140.5,140.5,0,0,1,51.28-25.63h-.8l113.78-32v-.8a138,138,0,0,0,77.72-56.09l65.7-97.75c45.67-68.11,137.81-85.73,205.11-40.86,16,10.41,29.65,24.83,40.86,40.86l65.7,97.75v.8a138,138,0,0,0,77.72,56.09l113.78,32c78.52,22.43,124.19,104.16,101.75,182.68a171.06,171.06,0,0,1-25.64,51.27h-.8l-72.91,92.95v-.8c-20,26.44-31.25,58.49-29.64,91.34l4.8,118.58c3.21,81.72-60.89,150.63-142.62,153.83a153.73,153.73,0,0,1-56.88-8.81" transform="translate(0 0)"/></g><path class="204bf191-274b-473e-95d6-52d3cb24d5ca" d="M5341.37,2506.71,5230,2465.85h.8a141.53,141.53,0,0,0-96.15,0l-111.37,40.86c-76.92,28.05-161.85-11.21-189.89-88.13a153.58,153.58,0,0,1-8.81-56.89v.8l4.8-118.58v.8c1.61-32.85-9.61-65.7-29.64-91.34l-72.91-92.94c-50.48-64.1-39.26-157,24.83-208.32a140.52,140.52,0,0,1,51.28-25.64h-.8l113.78-32v-.8a138,138,0,0,0,77.72-56.09l65.7-97.75c45.67-68.1,137.81-85.73,205.11-40.86,16,10.42,29.65,24.84,40.86,40.86l65.7,97.75v.8a137.88,137.88,0,0,0,77.72,56.09l113.78,32c78.52,22.43,124.19,104.16,101.75,182.68a171,171,0,0,1-25.64,51.28h-.8l-72.91,92.94v-.8c-20,26.44-31.25,58.49-29.64,91.34l4.8,118.58c3.21,81.73-60.89,150.63-142.62,153.84a153.74,153.74,0,0,1-56.88-8.82" transform="translate(0 0)"/></g><g class="c816e030-f4d5-4fb1-b11d-09ad6ec796f5"><path class="254a191a-a237-424a-93cc-9befa7e37181" d="M1553.53,708.25a164.6,164.6,0,0,0,142.62,247.57h678.64a165.67,165.67,0,0,0,82.52-22.43c78.52-45.67,105.77-146.62,60.1-225.14L2177.68,120.14a166.19,166.19,0,0,0-60.09-60.09c-78.52-45.67-179.47-18.43-225.14,60.09L1552.73,708.25" transform="translate(0 0)"/></g><g id="68789669-45b7-4e22-b735-fae7fe8a056f" data-name="ARC"><path class="204bf191-274b-473e-95d6-52d3cb24d5ca" d="M1553.53,674.23a164.61,164.61,0,0,0,142.62,247.58h678.64a165.58,165.58,0,0,0,82.52-22.44c78.52-45.67,105.77-146.62,60.1-225.14L2177.68,86.13A166.12,166.12,0,0,0,2117.59,26c-78.52-45.67-179.47-18.43-225.14,60.09l-339.72,588.1" transform="translate(0 0)"/></g><g id="ee830c19-3d28-443e-82d0-60f21c5dc5c3" data-name="ARC"><g class="c816e030-f4d5-4fb1-b11d-09ad6ec796f5"><path class="254a191a-a237-424a-93cc-9befa7e37181" d="M2496.57,2312.38a786.66,786.66,0,0,0-391-677.84h.81a140.35,140.35,0,0,0-141.82,0v-.8c-241.17,141-390.2,398.21-391,677.84a138.7,138.7,0,0,0,70.51,122.59,787.28,787.28,0,0,0,782,0h.8c43.26-24.84,70.5-72.12,70.5-122.59" transform="translate(0 0)"/></g><path class="204bf191-274b-473e-95d6-52d3cb24d5ca" d="M2496.57,2278.36a786.67,786.67,0,0,0-391-677.84h.81a140.35,140.35,0,0,0-141.82,0v-.8c-241.17,141-390.2,398.21-391,677.84a138.69,138.69,0,0,0,70.51,122.59,787.28,787.28,0,0,0,782,0h.8c43.26-24.84,70.5-72.11,70.5-122.59" transform="translate(0 0)"/></g><g class="c816e030-f4d5-4fb1-b11d-09ad6ec796f5"><path class="254a191a-a237-424a-93cc-9befa7e37181" d="M771.38,932.59H152A125.49,125.49,0,0,1,26.24,806.8h-.81V186.65a125.5,125.5,0,0,1,125.8-125.8H771.38a125.49,125.49,0,0,1,125.79,125.8h.8V806.8A125.49,125.49,0,0,1,772.18,932.59" transform="translate(0 0)"/></g><g id="09217021-2ac3-42a0-afc3-86cbfcae9b76" data-name="ARC"><path class="204bf191-274b-473e-95d6-52d3cb24d5ca" d="M771.38,898.57H152A125.49,125.49,0,0,1,26.24,772.78h-.81V152.63A125.49,125.49,0,0,1,151.23,26.84H771.38A125.49,125.49,0,0,1,897.17,152.63h.8V772.78A125.49,125.49,0,0,1,772.18,898.57" transform="translate(0 0)"/></g><g id="4d8202b4-8de8-446d-abb5-7e461a21e4a4" data-name="CIRCLE"><g class="c816e030-f4d5-4fb1-b11d-09ad6ec796f5"><path class="254a191a-a237-424a-93cc-9befa7e37181" d="M920.41,2078.42c0-253.19-205.12-459.1-459.11-459.1S3,1825.23,3,2078.42s205.11,459.1,459.1,459.1,458.31-205.91,458.31-459.1Z" transform="translate(0 0)"/></g><path class="204bf191-274b-473e-95d6-52d3cb24d5ca" d="M920.41,2044.4c0-253.18-205.12-459.1-459.11-459.1S3,1791.22,3,2044.4s205.11,459.11,459.1,459.11,458.31-205.92,458.31-459.11Z" transform="translate(0 0)"/></g></g></g></g></svg>